# xmcd
#
# Track frame offsets:
# 182
# 11240
# 25122
# 39025
# 50862
# 61320
# 73755
# 84372
# 97470
# 109995
# 123097
# 136100
# 147435
# 157962
# 169482
# 181430
# 193897
# 206575
#
# Disc length: 2940 seconds
#
# Revision: 0
# Processed by: cddbd v1.4PL0 Copyright (c) Steve Scherf et al.
# Submitted via: Axialis_AX_CDPlayer 2.6
#
DISCID=090b7a12
DTITLE=Elmore James - Rollin' And Tumblin' - Disc 1
DYEAR=1900
DGENRE=
TTITLE0=Comin' Home
TTITLE1=The Twelve Year Old Boy
TTITLE2=It Hurts Me Too
TTITLE3=Knocking At Your Door
TTITLE4=Elmore's Contribution To Jazz
TTITLE5=Cry For Me Baby
TTITLE6=Take Me Wherever You Go
TTITLE7=Dust My Broom
TTITLE8=The Sky Is Crying
TTITLE9=Baby Please Set A Date
TTITLE10=Held My Baby Last Night
TTITLE11=Rollin' And Tumblin'
TTITLE12=Done Somebody Wrong
TTITLE13=Fine Little Mama
TTITLE14=I Can't Stop Loving You
TTITLE15=Early One Morning
TTITLE16=I Need You
TTITLE17=Strange Angels
EXTD=
EXTT0=
EXTT1=
EXTT2=
EXTT3=
EXTT4=
EXTT5=
EXTT6=
EXTT7=
EXTT8=
EXTT9=
EXTT10=
EXTT11=
EXTT12=
EXTT13=
EXTT14=
EXTT15=
EXTT16=
EXTT17=
PLAYORDER=
